<svg xmlns="http://www.w3.org/2000/svg" viewBox="0 0 360.59 136.83"><defs><style>.cls-1{fill:#0057b8;}.cls-2{fill:#fedb00;}</style></defs><title>gekas_logo</title><g id="Layer_2" data-name="Layer 2"><g id="Layer_1-2" data-name="Layer 1"><path class="cls-1" d="M316.14,45.2v.06h0Zm35.27-11.46H330.17A9.18,9.18,0,0,0,321,42.92V59.36a36.58,36.58,0,0,0-13.77,2.85,1.84,1.84,0,0,1-.67-.62,13,13,0,0,0,7.05-4.3,13.42,13.42,0,0,0,2.88-8.63l-.33-3.4c-.75-3.74-3.82-10.41-10-18L307.4,25a10.07,10.07,0,0,0,1.74-5.57,8.88,8.88,0,0,0-.32-2.38c-.92-3.43-3.6-6-7.95-7.66-6-2.29-9.53-.06-11.08,1.47a8.75,8.75,0,0,0-1.8,2.74,10.66,10.66,0,0,0,.28-2.25,10.18,10.18,0,0,0-.22-2.12,11,11,0,0,0-4.83-6.9A16.34,16.34,0,0,0,271,.4a16.35,16.35,0,0,0-10.41,6.67,11.25,11.25,0,0,0-1.9,6.15,10.54,10.54,0,0,0,.22,2.1,10.21,10.21,0,0,0,1.83,3.87,25.06,25.06,0,0,0-3.13,1.86,9.92,9.92,0,0,0-8.8-4.9,23,23,0,0,0-8.6,2c.52-3,1.54-8.66,1.54-8.66l.09-1a5.73,5.73,0,0,0-6.72-5.63l-9,1.59a5.7,5.7,0,0,0-4.59,4.41s-1.41,6.48-2.19,10A13.39,13.39,0,0,0,216,17c-5.52-2.16-12.84-.87-19,3.06,0-.78.08-1.66.08-1.66,0-8.68-2.51-14.73-7.08-17-8.18-4.16-23.94,2.66-32.79,18-9.28,16.11-9.64,33-1,39.9a74.19,74.19,0,0,0-18.49,4.11V42.92a9.19,9.19,0,0,0-9.18-9.18H107.31a9.17,9.17,0,0,0-5.09,1.54,9.11,9.11,0,0,0-5.08-1.54H75.9a9.18,9.18,0,0,0-9.18,9.18V44.2a9.52,9.52,0,0,0-1.32-.14H44.83a9.08,9.08,0,0,0-6.76,3.09,9.08,9.08,0,0,0-6.76-3.09H9.18A9.19,9.19,0,0,0,0,53.25v51.31c0,19,15.35,32.27,37.34,32.27,12.47,0,22.79-4.31,29.38-11.54v1.2a9.18,9.18,0,0,0,9.18,9.17H97.14a9.19,9.19,0,0,0,5.08-1.53,9.24,9.24,0,0,0,5.09,1.53h21.24a9.2,9.2,0,0,0,8.45-5.59c5.56,3.89,14,6.66,26.64,6.66,11.18,0,20.93-1.64,27.8-4.59a9.13,9.13,0,0,0,7.18,3.52h21.24a9.18,9.18,0,0,0,9.18-9.17v-9.9c6.15,12.52,18.74,20.14,35.08,20.14,11,0,19.7-1.66,27.35-5.22a9.17,9.17,0,0,0,4.89-5.64c7,7,17.21,10.86,29.9,10.86,12.21,0,21.15-1.6,29-5.2a9.19,9.19,0,0,0,5.35-8.34V42.92A9.18,9.18,0,0,0,351.41,33.74ZM287.19,22.11a6.75,6.75,0,0,0-2.39-2.75,12.55,12.55,0,0,0,2.57-3.91,15.15,15.15,0,0,0-.45,3.63A23.47,23.47,0,0,0,287.19,22.11Z"/><path class="cls-2" d="M163.64,127.55c-18.22,0-28-6.07-28-18.63,0-14.69,15.75-18.84,33.64-20.43V86.25c0-4.58-3.47-5.86-9.28-5.86a44.56,44.56,0,0,0-16.32,3.52l-4.36-11.39a66.81,66.81,0,0,1,24.81-4.47c14.76,0,24.93,5.85,24.93,22.14v33c-5.14,2.55-14,4.36-25.37,4.36Zm5.59-30c-8.16.64-13.86,2.56-13.86,10.54,0,5.85,3.46,8.41,9.28,8.41a11.07,11.07,0,0,0,4.58-.74V97.53Z"/><path class="cls-2" d="M37.34,127.65c-15.75,0-28.16-8.4-28.16-23.09V53.25H31.31v51.1c0,5.21,2.79,7.45,6.82,7.45,4.24,0,6.7-2.35,6.7-7.56v-51H65.4v51.2c0,14.8-12.3,23.2-28.06,23.2Z"/><polygon class="cls-2" points="75.9 126.48 75.9 42.92 97.14 42.92 97.14 126.48 75.9 126.48 75.9 126.48"/><polygon class="cls-2" points="107.31 126.48 107.31 42.92 128.54 42.92 128.54 126.48 107.31 126.48 107.31 126.48"/><path class="cls-2" d="M230.36,82.31a14.32,14.32,0,0,0-10.5-1v45.14H198.62V72.41c7-3.3,18.22-5,35.43-4.15l-3.69,14Z"/><path class="cls-2" d="M254.29,104.66c1.34,6.18,4.8,9.26,12.51,9.26a38.67,38.67,0,0,0,16.1-3.08l4.69,12.35c-5.25,2.45-12.29,4.36-23.47,4.36-19.67,0-30.07-12.66-30.07-29.91s9.73-29.59,28.62-29.59S290.5,80.5,289.37,100l-35.08,4.68Zm7.49-25c-6.27,0-9.73,5.43-9.06,15.44l17.1-2.45c0-8.73-2.68-13-8-13Z"/><path class="cls-2" d="M326.26,127.55c-18.66,0-31.18-9.58-31.18-29.7,0-18,11.18-29.38,26.6-29.38a33.12,33.12,0,0,1,8.49.85V42.92h21.24v80.27c-6.26,2.87-13.64,4.36-25.15,4.36ZM330.17,80a14.24,14.24,0,0,0-3.35-.43c-7.6,0-10.73,6.18-10.73,17.67,0,11.92,3.35,17.68,10.39,17.68a8.82,8.82,0,0,0,3.69-.54V80Z"/><path class="cls-2" d="M274.79,18.09c4.95-1,8.39-4.69,7.66-8.16s-5.33-5.45-10.28-4.42-8.39,4.68-7.66,8.15,5.32,5.46,10.28,4.43ZM272,10c1.19-1.52,3-2.11,4-1.32s.88,2.67-.3,4.2-3,2.11-4,1.32-.88-2.67.3-4.2Z"/><path class="cls-2" d="M310.54,45.9c-.45-2.26-3.06-9.42-11.3-18.57,2-3.44,3.28-5.77,3.28-5.77s3.64-4.51-3.68-7.3c-10.72-4.07-4.3,13.41-4.3,13.41-6.38,7.9-13.07,19.4-15.88,19.86s-1.47-3.83.34-9.84c3.5-9.1,4.17-13.38,2.41-14.28A20.85,20.85,0,0,0,273,21.56c-16.16,0-22.87,14.89-20,26-2.54,2.69-5.81,2.74-8.15,2.61-3.79-.22-5.63-4.37-6.43-7.08h.05c13.19-.93,20.44-21.76,10.32-21.75-6.73,0-13.25,5.09-16.52,8.09L236.12,8l-9,1.59-8.1,37c-1.87,1.36-8,5.34-13.89,4.31a6.28,6.28,0,0,1-5.61-7s10,.42,15.54-4.64c2.85-2.6,7.41-14.18-1.16-17.53-6-2.35-17.32,1.64-21.52,11.3a19.77,19.77,0,0,0-1.69,11.84c.6,4.85,4.5,9.73,9.26,10.69,9.37,1.86,15.43-1.38,17.77-3.29l-.83,3.54s3-.25,6.16-.2l4.82,0,1.78-11.58c1.64,3,6,10.66,11.1,11.7,6.05,1.23,11.85-1.62,13.75-4.51,1.41,2.94,4.45,4.3,7.75,4.3a11.5,11.5,0,0,0,7.63-3.28c1.13,1.5,3,3.28,5.63,3.28,2.79,0,6.66-3.67,10.59-8.6.31.85,3.48,8.94,15.36,8.94,10.31,0,9.5-7.83,9.05-10.08ZM207.9,28.26c5.09-.87,3.85,4.84,2.4,7.33-2.62,4.48-10.78,4-10.78,4s.75-10,8.38-11.31Zm22.6,11.27c2.74-6.39,10.75-13.29,14.79-11.27,3.6,1.82-6.81,12.61-14.79,11.27Zm32.76,7.36c-5.25-1.48-1.37-15.46,5.64-19.46,1.24-.71,3.54-1.77,5.66-.36,1.55,1-4.55,21.73-11.3,19.82Zm34.47,1.58c-4.46-.39-7-2.9-7.81-6.21,2.44-3.44,4.64-7.2,6.64-10.45,1.45,1.72,9.79,17.41,1.17,16.66Z"/><path class="cls-2" d="M190.84,24.6c1.44-9.07-.1-17-3.4-18.67C182.66,3.51,170,8.22,162.19,21.7s-8.7,28.18-2.09,32.86c4.31,3,10.74,1.08,16.86-4.36l-1.57,9.23a37.3,37.3,0,0,1,5.34,1.82,29.45,29.45,0,0,1,4.48,2.92l2.48-29.11L175.6,32.24l-1.72,5.37,3,.12c-2.85,7.89-4.8,12.1-7.32,11-3-1.31-4.22-8.14-1.19-18.1,3.41-11.2,7.23-18.41,10.14-17.69,2.39.6,2.47,4.93,1.17,12.24l11.16-.6Z"/></g></g></svg>